<svg width="203" height="288" viewBox="0 0 203 288" fill="none" xmlns="http://www.w3.org/2000/svg">
<g clip-path="url(#clip0_102_750)">
<rect width="203" height="288" rx="10" fill="white"/>
<path d="M20.4634 38.3784V34.3145H9.93311C8.37158 34.3145 7.33057 33.4937 7.33057 32.1724C7.33057 31.4316 7.5708 30.731 8.27148 29.4497C11.1343 24.3848 12.936 21.502 17.4805 14.6953C18.6616 12.9536 19.5825 12.353 20.9639 12.353C22.7856 12.353 23.8066 13.394 23.8066 15.2559V31.2515H25.8887C27.0098 31.2515 27.6704 31.812 27.6704 32.793C27.6704 33.7539 27.0298 34.3145 25.8887 34.3145H23.8066V38.3784C23.8066 39.5396 23.2061 40.2002 22.125 40.2002C21.064 40.2002 20.4634 39.5396 20.4634 38.3784ZM10.6938 31.2515H20.4634V15.7563H20.2832C16.8799 20.7812 13.3164 26.5068 10.6938 31.0513V31.2515Z" fill="#BC1E24"/>
<path d="M13.7347 49.0006C16.4518 49.042 17.5069 51.3984 17.8537 52.5094C17.8888 52.6218 18.1122 52.6217 18.1472 52.5093C18.4938 51.3983 19.5482 49.042 22.2653 49.0006C25.8229 48.9462 28.4995 52.9292 26.0587 56.9289C23.8832 60.4939 18.0821 67 18 67C17.9165 67 12.1169 60.4943 9.94127 56.9289C7.50053 52.9291 10.177 48.9462 13.7347 49.0006Z" fill="#BC1E24"/>
<path d="M182.537 249.622L182.537 253.686L193.067 253.686C194.628 253.686 195.669 254.506 195.669 255.828C195.669 256.568 195.429 257.269 194.729 258.55C191.866 263.615 190.064 266.498 185.52 273.305C184.338 275.046 183.417 275.647 182.036 275.647C180.214 275.647 179.193 274.606 179.193 272.744L179.193 256.749L177.111 256.749C175.99 256.749 175.33 256.188 175.33 255.207C175.33 254.246 175.97 253.686 177.111 253.686L179.193 253.686L179.193 249.622C179.193 248.46 179.794 247.8 180.875 247.8C181.936 247.8 182.537 248.46 182.537 249.622ZM192.306 256.749L182.537 256.749L182.537 272.244L182.717 272.244C186.12 267.219 189.684 261.493 192.306 256.949L192.306 256.749Z" fill="#BC1E24"/>
<path d="M189.265 238.999C186.548 238.958 185.493 236.602 185.146 235.491C185.111 235.378 184.888 235.378 184.853 235.491C184.506 236.602 183.452 238.958 180.735 238.999C177.177 239.054 174.501 235.071 176.941 231.071C179.117 227.506 184.918 221 185 221C185.083 221 190.883 227.506 193.059 231.071C195.499 235.071 192.823 239.054 189.265 238.999Z" fill="#BC1E24"/>
<path d="M47.2206 26.2513C53.7688 26.3516 56.3116 32.0461 57.1475 34.731C57.2321 35.0026 57.7704 35.0025 57.8549 34.7309C58.6901 32.0459 61.2313 26.3516 67.7794 26.2513C76.3533 26.1199 82.8038 35.7455 76.9215 45.4114C71.6786 54.0268 57.6978 69.75 57.5 69.7499C57.2989 69.7499 43.3218 54.0277 38.0785 45.4114C32.1963 35.7454 38.6467 26.1199 47.2206 26.2513Z" fill="#BC1E24"/>
<path d="M47.2206 261.749C53.7688 261.648 56.3116 255.954 57.1475 253.269C57.2321 252.997 57.7704 252.998 57.8549 253.269C58.6901 255.954 61.2313 261.648 67.7794 261.749C76.3533 261.88 82.8038 252.255 76.9215 242.589C71.6786 233.973 57.6978 218.25 57.5 218.25C57.2989 218.25 43.3218 233.972 38.0785 242.589C32.1963 252.255 38.6467 261.88 47.2206 261.749Z" fill="#BC1E24"/>
<path d="M135.221 26.2513C141.769 26.3516 144.312 32.0461 145.148 34.731C145.232 35.0026 145.77 35.0025 145.855 34.7309C146.69 32.0459 149.231 26.3516 155.779 26.2513C164.353 26.1199 170.804 35.7455 164.922 45.4114C159.679 54.0268 145.698 69.75 145.5 69.7499C145.299 69.7499 131.322 54.0277 126.079 45.4114C120.196 35.7454 126.647 26.1199 135.221 26.2513Z" fill="#BC1E24"/>
<path d="M135.221 261.749C141.769 261.648 144.312 255.954 145.148 253.269C145.232 252.997 145.77 252.998 145.855 253.269C146.69 255.954 149.231 261.648 155.779 261.749C164.353 261.88 170.804 252.255 164.922 242.589C159.679 233.973 145.698 218.25 145.5 218.25C145.299 218.25 131.322 233.972 126.079 242.589C120.196 252.255 126.647 261.88 135.221 261.749Z" fill="#BC1E24"/>
</g>
<defs>
<clipPath id="clip0_102_750">
<rect width="203" height="288" rx="10" fill="white"/>
</clipPath>
</defs>
</svg>
